<svg width="76" height="76" viewBox="0 0 76 76" fill="none" xmlns="http://www.w3.org/2000/svg">
<path d="M54.1102 0C66.9047 0 75.5 8.97738 75.5 22.3356V53.1644C75.5 66.5226 66.9047 75.5 54.1064 75.5H21.3898C8.59528 75.5 0 66.5226 0 53.1644V22.3356C0 8.97738 8.59528 0 21.3898 0H54.1102ZM58.2731 39.8264C54.2265 37.302 51.1024 40.8471 50.2597 41.9808C49.4473 43.0755 48.7488 44.2832 48.0124 45.4909C46.2131 48.4712 44.1518 51.9072 40.5835 53.9058C35.3981 56.7769 31.4616 54.1317 28.6298 52.2072C27.5669 51.4904 26.5343 50.8125 25.5056 50.3606C22.9699 49.2659 20.6884 50.5125 17.3023 54.8135C15.5258 57.0613 13.7644 59.2897 11.9803 61.5103C10.9136 62.8387 11.1679 64.8879 12.6066 65.7762C14.9032 67.1903 17.7047 67.95 20.8706 67.95H52.6853C54.4809 67.95 56.2802 67.7046 57.996 67.1436C61.8604 65.8813 64.9276 62.9907 66.5296 59.1728C67.8809 55.9627 68.5377 52.067 67.2736 48.8257C66.8522 47.7504 66.2221 46.7492 65.3376 45.8688C63.0182 43.5664 60.8507 41.4159 58.2731 39.8264ZM24.5332 15.1C19.3288 15.1 15.1 19.3345 15.1 24.5375C15.1 29.7405 19.3288 33.975 24.5332 33.975C29.7338 33.975 33.9664 29.7405 33.9664 24.5375C33.9664 19.3345 29.7338 15.1 24.5332 15.1Z" fill="#FDC66B"/>
</svg>
