<svg width="82" height="82" viewBox="0 0 82 82" fill="none" xmlns="http://www.w3.org/2000/svg">
<path d="M55.1446 7.29917C54.9806 8.32417 54.8986 9.34916 54.8986 10.3741C54.8986 19.5991 62.3605 27.0569 71.5444 27.0569C72.5694 27.0569 73.5534 26.938 74.5784 26.774V59.8567C74.5784 73.7597 66.3785 82.0006 52.4386 82.0006H22.1439C8.19994 82.0006 0 73.7597 0 59.8567V29.521C0 15.5811 8.19994 7.29917 22.1439 7.29917H55.1446ZM55.9687 32.227C54.8576 32.104 53.7547 32.596 53.0946 33.498L43.1768 46.3309L31.8158 37.3929C31.1188 36.8599 30.2988 36.6508 29.4788 36.7369C28.6629 36.8599 27.9249 37.3068 27.4288 37.9628L15.297 53.7518L15.0469 54.1208C14.3499 55.4287 14.6779 57.1097 15.9079 58.0158C16.4819 58.3848 17.0969 58.6308 17.7939 58.6308C18.741 58.6718 19.6388 58.1757 20.2128 57.4008L30.5038 44.1538L42.1887 52.9318L42.5577 53.1737C43.8697 53.8707 45.5097 53.5468 46.4526 52.3127L58.3016 37.0239L58.1376 37.1059C58.7935 36.2039 58.9165 35.056 58.4655 34.031C58.0187 33.006 57.0306 32.309 55.9687 32.227ZM72.1189 0C77.5718 0 81.9998 4.42797 81.9998 9.88092C81.9998 15.3339 77.5718 19.7618 72.1189 19.7618C66.6659 19.7618 62.2379 15.3339 62.2379 9.88092C62.2379 4.42797 66.6659 0 72.1189 0Z" fill="#FDC66B"/>
</svg>
