<svg width="76" height="76" viewBox="0 0 76 76" fill="none" xmlns="http://www.w3.org/2000/svg">
<path d="M71.2627 66.915C73.5994 66.915 75.5 68.8403 75.5 71.2075C75.5 73.5792 73.5994 75.5 71.2627 75.5H47.312C44.9753 75.5 43.0747 73.5792 43.0747 71.2075C43.0747 68.8403 44.9753 66.915 47.312 66.915H71.2627ZM54.653 2.93218L60.8399 7.8469C63.3769 9.83082 65.0683 12.446 65.6469 15.1964C66.3145 18.2219 65.6024 21.1933 63.5995 23.7634L26.7454 71.4226C25.0541 73.5869 22.5615 74.8043 19.891 74.8494L5.20277 75.0297C4.40159 75.0297 3.73395 74.4887 3.55591 73.7221L0.217685 59.2485C-0.360941 56.5883 0.217685 53.8378 1.90905 51.7186L28.0362 17.9018C28.4813 17.3607 29.2825 17.275 29.8166 17.6763L40.8105 26.4236C41.5227 27.0098 42.5019 27.3254 43.5256 27.1901C45.7066 26.9196 47.1754 24.9357 46.9528 22.8165C46.8193 21.7344 46.2852 20.8326 45.573 20.1562C45.3505 19.9759 34.8907 11.5893 34.8907 11.5893C34.2231 11.0482 34.0895 10.0563 34.6237 9.38444L38.7631 4.01432C42.5909 -0.900393 49.2673 -1.35128 54.653 2.93218Z" fill="#FDC66B"/>
</svg>
