<svg width="73" height="80" viewBox="0 0 73 80" fill="none" xmlns="http://www.w3.org/2000/svg">
<path d="M52.964 0C65.32 0 72.2 7.12 72.2 19.32V60.64C72.2 73.04 65.32 80 52.964 80H19.44C7.27995 80 0.199951 73.04 0.199951 60.64V19.32C0.199951 7.12 7.27995 0 19.44 0H52.964ZM20.52 54.96C19.32 54.84 18.16 55.4 17.52 56.44C16.88 57.44 16.88 58.76 17.52 59.8C18.16 60.8 19.32 61.4 20.52 61.24H51.88C53.476 61.08 54.68 59.716 54.68 58.12C54.68 56.48 53.476 55.12 51.88 54.96H20.52ZM51.88 36.716H20.52C18.796 36.716 17.4 38.12 17.4 39.84C17.4 41.56 18.796 42.96 20.52 42.96H51.88C53.6 42.96 55 41.56 55 39.84C55 38.12 53.6 36.716 51.88 36.716ZM32.476 18.6H20.52V18.64C18.796 18.64 17.4 20.04 17.4 21.76C17.4 23.48 18.796 24.88 20.52 24.88H32.476C34.2 24.88 35.6 23.48 35.6 21.716C35.6 20 34.2 18.6 32.476 18.6Z" fill="#FDC66B"/>
</svg>
